<?xml version="1.0" standalone="no"?>
<!DOCTYPE svg PUBLIC "-//W3C//DTD SVG 20010904//EN"
 "http://www.w3.org/TR/2001/REC-SVG-20010904/DTD/svg10.dtd">
<svg version="1.0" xmlns="http://www.w3.org/2000/svg"
 width="403.000000pt" height="403.000000pt" viewBox="0 0 403.000000 403.000000"
 preserveAspectRatio="xMidYMid meet">
<metadata>
Created by potrace 1.14, written by Peter Selinger 2001-2017
</metadata>
<g transform="translate(0.000000,403.000000) scale(0.100000,-0.100000)"
fill="#000000" stroke="none">
<path d="M852 3908 c-5 -78 -5 -78 -87 -76 -41 2 -76 0 -79 -3 -3 -2 -7 -484
-9 -1069 -1 -586 -6 -1074 -9 -1085 -3 -11 -9 -65 -13 -120 -3 -55 -8 -118
-11 -140 -4 -42 -11 -123 -19 -240 -3 -38 -7 -86 -10 -105 -2 -19 -7 -73 -10
-120 -6 -83 -9 -114 -20 -235 -2 -33 -7 -94 -10 -135 -3 -41 -8 -100 -11 -131
-14 -146 -15 -139 25 -140 57 -2 81 -6 88 -13 4 -3 5 -31 4 -61 l-2 -55 763
-1 c420 0 772 -2 783 -4 11 -2 58 -7 105 -10 47 -3 105 -8 130 -10 25 -3 79
-7 120 -10 41 -3 93 -7 115 -10 58 -6 194 -17 240 -20 79 -5 211 -16 242 -20
31 -5 32 -4 35 38 l3 42 65 5 65 5 1 800 c0 440 4 838 8 885 4 47 9 101 11
120 2 19 6 73 10 120 3 47 8 101 11 120 2 19 6 71 9 115 3 44 7 100 9 125 3
25 8 80 11 123 3 42 7 94 9 115 3 20 8 75 11 122 4 47 8 103 10 125 6 69 15
167 20 240 6 79 13 154 20 235 3 30 7 84 10 120 3 36 8 91 11 122 l5 57 -44 6
c-25 4 -62 8 -83 8 -39 2 -39 2 -39 45 1 23 -4 42 -10 43 -5 0 -264 2 -575 4
-311 2 -581 5 -600 8 -31 4 -188 16 -280 23 -19 1 -35 3 -35 4 0 0 -27 3 -61
5 -33 3 -89 7 -125 10 -35 3 -91 7 -124 10 -33 2 -81 6 -107 9 -27 3 -83 8
-125 11 -43 3 -105 8 -138 11 -90 8 -152 13 -236 19 l-75 6 -2 -43z m222 -62
c38 -4 71 -8 74 -10 2 -2 -46 -4 -107 -4 -61 0 -111 3 -111 7 0 15 11 18 43
15 18 -1 63 -5 101 -8z m2184 -1839 c2 -1386 0 -1737 -10 -1738 -17 -1 -2449
-1 -2465 0 -10 1 -13 356 -13 1739 l0 1737 1243 0 1242 0 3 -1738z m148 1644
c7 0 10 -15 8 -33 -2 -18 -6 -55 -9 -83 -3 -27 -8 -89 -11 -136 -2 -47 -7
-104 -9 -125 -4 -36 -12 -134 -20 -229 -2 -22 -4 -50 -4 -62 -1 -13 -4 -23 -8
-23 -6 0 -10 662 -4 691 1 6 11 6 57 0z m-50 -732 c-7 -44 -14 -46 -12 -4 0
19 5 35 9 35 5 0 6 -14 3 -31z m-2676 -2359 c0 -162 -1 -170 -20 -170 -11 0
-18 5 -15 13 2 6 7 41 9 77 12 168 19 250 22 250 2 0 4 -76 4 -170z"/>
<path d="M2462 3524 c-185 -92 -182 -355 6 -444 91 -44 208 -23 279 50 50 52
68 96 68 175 0 58 -5 78 -28 120 -64 115 -207 158 -325 99z"/>
<path d="M954 3173 c-7 -8 -14 -21 -14 -30 0 -41 15 -42 495 -43 253 0 465 4
471 8 20 13 26 49 10 64 -22 22 -940 23 -962 1z"/>
<path d="M2469 3026 c-2 -2 -24 -6 -49 -9 -107 -12 -177 -53 -211 -123 -19
-41 -23 -65 -24 -165 0 -64 1 -123 4 -130 4 -10 25 -14 69 -14 34 0 62 2 63 5
0 3 2 48 3 100 3 143 20 150 26 10 l5 -115 213 0 c181 0 215 2 221 15 4 8 6
57 5 108 -1 86 6 113 20 76 3 -9 6 -57 6 -108 l0 -92 63 2 c34 1 66 2 70 3 12
1 6 251 -6 281 -30 73 -84 115 -177 140 -41 11 -292 24 -301 16z m137 -286 c5
-49 4 -57 -16 -75 -22 -19 -22 -19 -40 5 -19 24 -20 45 -5 129 2 14 7 42 10
61 15 97 18 98 31 15 7 -44 16 -105 20 -135z"/>
<path d="M952 2918 c-14 -14 -15 -37 -2 -58 8 -13 73 -15 476 -16 440 -1 468
0 486 18 22 22 23 32 2 52 -14 14 -71 16 -483 16 -350 0 -470 -3 -479 -12z"/>
<path d="M959 2662 c-27 -19 -25 -59 4 -68 12 -4 227 -8 477 -8 421 -1 456 0
472 16 22 22 22 29 5 52 -13 18 -41 19 -477 20 -366 1 -467 -2 -481 -12z"/>
<path d="M995 2242 c-36 -4 -55 -19 -55 -42 0 -47 -34 -46 1065 -44 567 1
1038 3 1048 3 9 1 23 12 29 26 9 21 9 29 -4 42 -15 14 -119 16 -1035 17 -560
0 -1031 -1 -1048 -2z"/>
<path d="M967 1982 c-23 -5 -34 -50 -15 -68 13 -13 553 -17 1966 -14 l152 0
12 25 c10 21 9 29 -6 43 -15 16 -89 17 -1054 17 -571 0 -1045 -1 -1055 -3z"/>
<path d="M952 1714 c-18 -20 -15 -52 7 -64 13 -7 362 -10 1060 -10 932 0 1041
2 1055 16 18 18 20 32 6 54 -8 13 -138 15 -1062 16 -860 1 -1056 -1 -1066 -12z"/>
<path d="M1010 1472 c-50 -4 -70 -16 -70 -43 0 -47 -41 -45 1079 -45 924 1
1053 3 1061 16 24 38 2 64 -54 65 -25 0 -46 2 -46 5 0 3 -25 5 -55 5 -30 0
-55 -2 -55 -5 0 -3 -29 -5 -65 -5 -36 0 -65 2 -65 5 0 3 -25 5 -55 5 -30 0
-55 -2 -55 -5 0 -3 -32 -3 -71 0 -39 3 -75 3 -80 -1 -6 -3 -27 -3 -47 1 -20 3
-48 3 -62 0 -13 -3 -46 -3 -72 0 -26 4 -53 3 -59 0 -6 -4 -27 -4 -47 0 -20 3
-48 3 -62 0 -13 -3 -46 -3 -72 0 -26 4 -53 3 -59 0 -6 -4 -27 -4 -47 0 -20 3
-48 3 -62 0 -13 -3 -46 -3 -72 0 -26 4 -53 3 -59 0 -6 -4 -27 -4 -47 0 -20 3
-48 3 -62 0 -13 -3 -46 -3 -72 0 -26 4 -53 3 -59 0 -6 -4 -27 -4 -47 0 -20 3
-48 3 -62 0 -13 -3 -46 -3 -72 0 -26 4 -53 3 -59 0 -6 -4 -27 -4 -47 0 -20 3
-48 3 -62 0 -13 -3 -45 -3 -70 0 -25 3 -65 4 -90 2z"/>
<path d="M952 1158 c-16 -16 -15 -44 3 -62 13 -13 143 -15 1060 -15 l1045 0
15 22 c19 27 19 32 -1 51 -14 14 -124 16 -1063 16 -801 0 -1050 -3 -1059 -12z"/>
<path d="M1106 872 c-4 -3 -34 -5 -66 -4 -66 4 -100 -9 -100 -38 0 -52 -51
-49 1073 -49 573 -1 1047 3 1053 7 20 13 26 49 10 65 -13 13 -96 15 -623 16
-335 1 -615 2 -623 1 -8 0 -62 0 -120 1 -58 0 -112 0 -120 0 -8 -1 -62 -1
-120 0 -58 0 -112 0 -120 0 -70 -3 -222 -1 -229 3 -4 3 -11 2 -15 -2z"/>
<path d="M957 555 c-21 -15 -22 -39 -1 -59 14 -14 85 -16 632 -16 613 0 617 0
630 21 18 28 6 57 -26 63 -15 3 -295 5 -622 5 -462 -1 -599 -4 -613 -14z"/>
</g>
</svg>
